<svg width="262" height="95" viewBox="0 0 262 95" fill="none" xmlns="http://www.w3.org/2000/svg">
<path d="M71.6 26.504C69.608 26.504 67.856 26.108 66.344 25.316C64.856 24.5 63.692 23.36 62.852 21.896C62.036 20.432 61.628 18.728 61.628 16.784V0.799998H65.804V16.784C65.804 17.96 66.044 18.992 66.524 19.88C67.028 20.744 67.724 21.428 68.612 21.932C69.5 22.412 70.52 22.652 71.672 22.652C72.848 22.652 73.88 22.412 74.768 21.932C75.68 21.428 76.376 20.744 76.856 19.88C77.336 18.992 77.576 17.96 77.576 16.784V0.799998H81.752V16.784C81.752 18.728 81.332 20.432 80.492 21.896C79.676 23.36 78.5 24.5 76.964 25.316C75.452 26.108 73.664 26.504 71.6 26.504ZM85.5708 26V0.799998H93.8868C95.6148 0.799998 97.1028 1.064 98.3508 1.592C99.6228 2.12 100.607 2.912 101.303 3.968C101.999 5 102.347 6.296 102.347 7.856C102.347 8.936 102.083 9.908 101.555 10.772C101.051 11.636 100.331 12.356 99.3948 12.932C100.619 13.532 101.555 14.336 102.203 15.344C102.851 16.352 103.175 17.552 103.175 18.944C103.175 20.432 102.839 21.704 102.167 22.76C101.495 23.816 100.547 24.62 99.3228 25.172C98.0988 25.724 96.6468 26 94.9668 26H85.5708ZM89.6748 22.256H94.6428C95.9628 22.256 97.0068 21.932 97.7748 21.284C98.5428 20.636 98.9268 19.76 98.9268 18.656C98.9268 17.456 98.4948 16.52 97.6308 15.848C96.7908 15.176 95.6028 14.84 94.0668 14.84H89.6748V22.256ZM89.6748 11.384H94.2468C95.4468 11.384 96.3828 11.072 97.0548 10.448C97.7508 9.8 98.0988 8.912 98.0988 7.784C98.0988 6.632 97.7028 5.756 96.9108 5.156C96.1428 4.532 95.0628 4.22 93.6708 4.22H89.6748V11.384ZM105.814 26V0.799998H109.99V26H105.814ZM125.37 26.432C122.874 26.432 120.666 25.88 118.746 24.776C116.826 23.672 115.314 22.136 114.21 20.168C113.13 18.2 112.59 15.944 112.59 13.4C112.59 11.48 112.902 9.728 113.526 8.144C114.15 6.56 115.026 5.192 116.154 4.04C117.282 2.864 118.614 1.964 120.15 1.34C121.71 0.691999 123.414 0.368 125.262 0.368C127.758 0.368 129.954 0.931999 131.85 2.06C133.77 3.164 135.258 4.7 136.314 6.668C137.394 8.612 137.934 10.856 137.934 13.4C137.934 15.944 137.394 18.2 136.314 20.168C135.258 22.136 133.782 23.672 131.886 24.776C130.014 25.88 127.842 26.432 125.37 26.432ZM135.162 27.476L125.982 18.188L128.682 15.596L137.79 24.848L135.162 27.476ZM125.37 22.616C127.002 22.616 128.442 22.22 129.69 21.428C130.938 20.636 131.91 19.556 132.606 18.188C133.326 16.796 133.686 15.2 133.686 13.4C133.686 11.6 133.326 10.016 132.606 8.648C131.886 7.256 130.89 6.164 129.618 5.372C128.37 4.58 126.918 4.184 125.262 4.184C123.63 4.184 122.178 4.58 120.906 5.372C119.658 6.164 118.662 7.256 117.918 8.648C117.198 10.016 116.838 11.6 116.838 13.4C116.838 15.2 117.198 16.796 117.918 18.188C118.662 19.556 119.67 20.636 120.942 21.428C122.238 22.22 123.714 22.616 125.37 22.616ZM150.252 26.504C148.26 26.504 146.508 26.108 144.996 25.316C143.508 24.5 142.344 23.36 141.504 21.896C140.688 20.432 140.28 18.728 140.28 16.784V0.799998H144.456V16.784C144.456 17.96 144.696 18.992 145.176 19.88C145.68 20.744 146.376 21.428 147.264 21.932C148.152 22.412 149.172 22.652 150.324 22.652C151.5 22.652 152.532 22.412 153.42 21.932C154.332 21.428 155.028 20.744 155.508 19.88C155.988 18.992 156.228 17.96 156.228 16.784V0.799998H160.404V16.784C160.404 18.728 159.984 20.432 159.144 21.896C158.328 23.36 157.152 24.5 155.616 25.316C154.104 26.108 152.316 26.504 150.252 26.504ZM164.222 26V0.799998H179.738V4.616H168.398V11.312H178.406V15.056H168.398V22.184H179.846V26H164.222Z" fill="#C7EF4E"/>
<path d="M61.988 59V33.8H70.304C72.032 33.8 73.52 34.064 74.768 34.592C76.04 35.12 77.024 35.912 77.72 36.968C78.416 38 78.764 39.296 78.764 40.856C78.764 41.936 78.5 42.908 77.972 43.772C77.468 44.636 76.748 45.356 75.812 45.932C77.036 46.532 77.972 47.336 78.62 48.344C79.268 49.352 79.592 50.552 79.592 51.944C79.592 53.432 79.256 54.704 78.584 55.76C77.912 56.816 76.964 57.62 75.74 58.172C74.516 58.724 73.064 59 71.384 59H61.988ZM66.092 55.256H71.06C72.38 55.256 73.424 54.932 74.192 54.284C74.96 53.636 75.344 52.76 75.344 51.656C75.344 50.456 74.912 49.52 74.048 48.848C73.208 48.176 72.02 47.84 70.484 47.84H66.092V55.256ZM66.092 44.384H70.664C71.864 44.384 72.8 44.072 73.472 43.448C74.168 42.8 74.516 41.912 74.516 40.784C74.516 39.632 74.12 38.756 73.328 38.156C72.56 37.532 71.48 37.22 70.088 37.22H66.092V44.384ZM91.843 59.504C89.851 59.504 88.099 59.108 86.587 58.316C85.099 57.5 83.935 56.36 83.095 54.896C82.279 53.432 81.871 51.728 81.871 49.784V33.8H86.047V49.784C86.047 50.96 86.287 51.992 86.767 52.88C87.271 53.744 87.967 54.428 88.855 54.932C89.743 55.412 90.763 55.652 91.915 55.652C93.091 55.652 94.123 55.412 95.011 54.932C95.923 54.428 96.619 53.744 97.099 52.88C97.579 51.992 97.819 50.96 97.819 49.784V33.8H101.995V49.784C101.995 51.728 101.575 53.432 100.735 54.896C99.919 56.36 98.743 57.5 97.207 58.316C95.695 59.108 93.907 59.504 91.843 59.504ZM114.094 59.432C112.774 59.432 111.562 59.276 110.458 58.964C109.378 58.652 108.418 58.22 107.578 57.668C106.762 57.116 106.078 56.504 105.526 55.832C104.998 55.136 104.626 54.416 104.41 53.672L108.514 52.412C108.826 53.3 109.438 54.08 110.35 54.752C111.262 55.424 112.39 55.772 113.734 55.796C115.294 55.796 116.53 55.472 117.442 54.824C118.354 54.176 118.81 53.324 118.81 52.268C118.81 51.308 118.426 50.528 117.658 49.928C116.89 49.304 115.858 48.824 114.562 48.488L111.466 47.696C110.29 47.384 109.222 46.928 108.262 46.328C107.326 45.728 106.582 44.972 106.03 44.06C105.502 43.148 105.238 42.068 105.238 40.82C105.238 38.468 106.006 36.644 107.542 35.348C109.078 34.028 111.274 33.368 114.13 33.368C115.738 33.368 117.142 33.62 118.342 34.124C119.566 34.604 120.574 35.276 121.366 36.14C122.158 36.98 122.746 37.94 123.13 39.02L119.098 40.316C118.738 39.356 118.114 38.564 117.226 37.94C116.338 37.316 115.234 37.004 113.914 37.004C112.546 37.004 111.466 37.328 110.674 37.976C109.906 38.624 109.522 39.524 109.522 40.676C109.522 41.612 109.822 42.344 110.422 42.872C111.046 43.376 111.886 43.76 112.942 44.024L116.038 44.78C118.294 45.332 120.046 46.28 121.294 47.624C122.542 48.968 123.166 50.456 123.166 52.088C123.166 53.528 122.818 54.8 122.122 55.904C121.426 57.008 120.394 57.872 119.026 58.496C117.682 59.12 116.038 59.432 114.094 59.432ZM125.986 59V33.8H130.162V59H125.986ZM134.347 59V33.8H138.667L152.059 52.016V33.8H156.235V59H152.059L138.523 40.568V59H134.347ZM160.426 59V33.8H175.941V37.616H164.602V44.312H174.61V48.056H164.602V55.184H176.05V59H160.426ZM188.14 59.432C186.82 59.432 185.608 59.276 184.504 58.964C183.424 58.652 182.464 58.22 181.624 57.668C180.808 57.116 180.124 56.504 179.572 55.832C179.044 55.136 178.672 54.416 178.456 53.672L182.56 52.412C182.872 53.3 183.484 54.08 184.396 54.752C185.308 55.424 186.436 55.772 187.78 55.796C189.34 55.796 190.576 55.472 191.488 54.824C192.4 54.176 192.856 53.324 192.856 52.268C192.856 51.308 192.472 50.528 191.704 49.928C190.936 49.304 189.904 48.824 188.608 48.488L185.512 47.696C184.336 47.384 183.268 46.928 182.308 46.328C181.372 45.728 180.628 44.972 180.076 44.06C179.548 43.148 179.284 42.068 179.284 40.82C179.284 38.468 180.052 36.644 181.588 35.348C183.124 34.028 185.32 33.368 188.176 33.368C189.784 33.368 191.188 33.62 192.388 34.124C193.612 34.604 194.62 35.276 195.412 36.14C196.204 36.98 196.792 37.94 197.176 39.02L193.144 40.316C192.784 39.356 192.16 38.564 191.272 37.94C190.384 37.316 189.28 37.004 187.96 37.004C186.592 37.004 185.512 37.328 184.72 37.976C183.952 38.624 183.568 39.524 183.568 40.676C183.568 41.612 183.868 42.344 184.468 42.872C185.092 43.376 185.932 43.76 186.988 44.024L190.084 44.78C192.34 45.332 194.092 46.28 195.34 47.624C196.588 48.968 197.212 50.456 197.212 52.088C197.212 53.528 196.864 54.8 196.168 55.904C195.472 57.008 194.44 57.872 193.072 58.496C191.728 59.12 190.084 59.432 188.14 59.432ZM208.313 59.432C206.993 59.432 205.781 59.276 204.677 58.964C203.597 58.652 202.637 58.22 201.797 57.668C200.981 57.116 200.297 56.504 199.745 55.832C199.217 55.136 198.845 54.416 198.629 53.672L202.733 52.412C203.045 53.3 203.657 54.08 204.569 54.752C205.481 55.424 206.609 55.772 207.953 55.796C209.513 55.796 210.749 55.472 211.661 54.824C212.573 54.176 213.029 53.324 213.029 52.268C213.029 51.308 212.645 50.528 211.877 49.928C211.109 49.304 210.077 48.824 208.781 48.488L205.685 47.696C204.509 47.384 203.441 46.928 202.481 46.328C201.545 45.728 200.801 44.972 200.249 44.06C199.721 43.148 199.457 42.068 199.457 40.82C199.457 38.468 200.225 36.644 201.761 35.348C203.297 34.028 205.493 33.368 208.349 33.368C209.957 33.368 211.361 33.62 212.561 34.124C213.785 34.604 214.793 35.276 215.585 36.14C216.377 36.98 216.965 37.94 217.349 39.02L213.317 40.316C212.957 39.356 212.333 38.564 211.445 37.94C210.557 37.316 209.453 37.004 208.133 37.004C206.765 37.004 205.685 37.328 204.893 37.976C204.125 38.624 203.741 39.524 203.741 40.676C203.741 41.612 204.041 42.344 204.641 42.872C205.265 43.376 206.105 43.76 207.161 44.024L210.257 44.78C212.513 45.332 214.265 46.28 215.513 47.624C216.761 48.968 217.385 50.456 217.385 52.088C217.385 53.528 217.037 54.8 216.341 55.904C215.645 57.008 214.613 57.872 213.245 58.496C211.901 59.12 210.257 59.432 208.313 59.432Z" fill="#C7EF4E"/>
<path d="M70.268 94.432C68.948 94.432 67.736 94.276 66.632 93.964C65.552 93.652 64.592 93.22 63.752 92.668C62.936 92.116 62.252 91.504 61.7 90.832C61.172 90.136 60.8 89.416 60.584 88.672L64.688 87.412C65 88.3 65.612 89.08 66.524 89.752C67.436 90.424 68.564 90.772 69.908 90.796C71.468 90.796 72.704 90.472 73.616 89.824C74.528 89.176 74.984 88.324 74.984 87.268C74.984 86.308 74.6 85.528 73.832 84.928C73.064 84.304 72.032 83.824 70.736 83.488L67.64 82.696C66.464 82.384 65.396 81.928 64.436 81.328C63.5 80.728 62.756 79.972 62.204 79.06C61.676 78.148 61.412 77.068 61.412 75.82C61.412 73.468 62.18 71.644 63.716 70.348C65.252 69.028 67.448 68.368 70.304 68.368C71.912 68.368 73.316 68.62 74.516 69.124C75.74 69.604 76.748 70.276 77.54 71.14C78.332 71.98 78.92 72.94 79.304 74.02L75.272 75.316C74.912 74.356 74.288 73.564 73.4 72.94C72.512 72.316 71.408 72.004 70.088 72.004C68.72 72.004 67.64 72.328 66.848 72.976C66.08 73.624 65.696 74.524 65.696 75.676C65.696 76.612 65.996 77.344 66.596 77.872C67.22 78.376 68.06 78.76 69.116 79.024L72.212 79.78C74.468 80.332 76.22 81.28 77.468 82.624C78.716 83.968 79.34 85.456 79.34 87.088C79.34 88.528 78.992 89.8 78.296 90.904C77.6 92.008 76.568 92.872 75.2 93.496C73.856 94.12 72.212 94.432 70.268 94.432ZM95.1567 94.432C92.6607 94.432 90.4527 93.88 88.5327 92.776C86.6127 91.672 85.1007 90.136 83.9967 88.168C82.9167 86.2 82.3767 83.944 82.3767 81.4C82.3767 78.856 82.9167 76.612 83.9967 74.668C85.1007 72.7 86.6007 71.164 88.4967 70.06C90.3927 68.932 92.5767 68.368 95.0487 68.368C97.5447 68.368 99.7407 68.932 101.637 70.06C103.557 71.164 105.045 72.7 106.101 74.668C107.181 76.612 107.721 78.856 107.721 81.4C107.721 83.944 107.181 86.2 106.101 88.168C105.045 90.136 103.569 91.672 101.673 92.776C99.8007 93.88 97.6287 94.432 95.1567 94.432ZM95.1567 90.616C96.7887 90.616 98.2287 90.22 99.4767 89.428C100.725 88.636 101.697 87.556 102.393 86.188C103.113 84.796 103.473 83.2 103.473 81.4C103.473 79.624 103.113 78.04 102.393 76.648C101.673 75.256 100.677 74.176 99.4047 73.408C98.1567 72.616 96.7047 72.22 95.0487 72.22C93.4167 72.22 91.9647 72.616 90.6927 73.408C89.4447 74.176 88.4487 75.256 87.7047 76.648C86.9847 78.016 86.6247 79.6 86.6247 81.4C86.6247 83.2 86.9847 84.796 87.7047 86.188C88.4487 87.556 89.4567 88.636 90.7287 89.428C92.0247 90.22 93.5007 90.616 95.1567 90.616ZM112.156 94V68.8H116.332V90.184H127.744V94H112.156ZM140.858 94.504C138.866 94.504 137.114 94.108 135.602 93.316C134.114 92.5 132.95 91.36 132.11 89.896C131.294 88.432 130.886 86.728 130.886 84.784V68.8H135.062V84.784C135.062 85.96 135.302 86.992 135.782 87.88C136.286 88.744 136.982 89.428 137.87 89.932C138.758 90.412 139.778 90.652 140.93 90.652C142.106 90.652 143.138 90.412 144.026 89.932C144.938 89.428 145.634 88.744 146.114 87.88C146.594 86.992 146.834 85.96 146.834 84.784V68.8H151.01V84.784C151.01 86.728 150.59 88.432 149.75 89.896C148.934 91.36 147.758 92.5 146.222 93.316C144.71 94.108 142.922 94.504 140.858 94.504ZM161.286 94V72.616H153.546V68.8H173.202V72.616H165.462V94H161.286ZM176.668 94V68.8H180.844V94H176.668ZM198.024 94.432C195.528 94.432 193.32 93.88 191.4 92.776C189.48 91.672 187.968 90.136 186.864 88.168C185.784 86.2 185.244 83.944 185.244 81.4C185.244 78.856 185.784 76.612 186.864 74.668C187.968 72.7 189.468 71.164 191.364 70.06C193.26 68.932 195.444 68.368 197.916 68.368C200.412 68.368 202.608 68.932 204.504 70.06C206.424 71.164 207.912 72.7 208.968 74.668C210.048 76.612 210.588 78.856 210.588 81.4C210.588 83.944 210.048 86.2 208.968 88.168C207.912 90.136 206.436 91.672 204.54 92.776C202.668 93.88 200.496 94.432 198.024 94.432ZM198.024 90.616C199.656 90.616 201.096 90.22 202.344 89.428C203.592 88.636 204.564 87.556 205.26 86.188C205.98 84.796 206.34 83.2 206.34 81.4C206.34 79.624 205.98 78.04 205.26 76.648C204.54 75.256 203.544 74.176 202.272 73.408C201.024 72.616 199.572 72.22 197.916 72.22C196.284 72.22 194.832 72.616 193.56 73.408C192.312 74.176 191.316 75.256 190.572 76.648C189.852 78.016 189.492 79.6 189.492 81.4C189.492 83.2 189.852 84.796 190.572 86.188C191.316 87.556 192.324 88.636 193.596 89.428C194.892 90.22 196.368 90.616 198.024 90.616ZM215.023 94V68.8H219.343L232.735 87.016V68.8H236.911V94H232.735L219.199 75.568V94H215.023ZM251.182 94.432C249.862 94.432 248.65 94.276 247.546 93.964C246.466 93.652 245.506 93.22 244.666 92.668C243.85 92.116 243.166 91.504 242.614 90.832C242.086 90.136 241.714 89.416 241.498 88.672L245.602 87.412C245.914 88.3 246.526 89.08 247.438 89.752C248.35 90.424 249.478 90.772 250.822 90.796C252.382 90.796 253.618 90.472 254.53 89.824C255.442 89.176 255.898 88.324 255.898 87.268C255.898 86.308 255.514 85.528 254.746 84.928C253.978 84.304 252.946 83.824 251.65 83.488L248.554 82.696C247.378 82.384 246.31 81.928 245.35 81.328C244.414 80.728 243.67 79.972 243.118 79.06C242.59 78.148 242.326 77.068 242.326 75.82C242.326 73.468 243.094 71.644 244.63 70.348C246.166 69.028 248.362 68.368 251.218 68.368C252.826 68.368 254.23 68.62 255.43 69.124C256.654 69.604 257.662 70.276 258.454 71.14C259.246 71.98 259.834 72.94 260.218 74.02L256.186 75.316C255.826 74.356 255.202 73.564 254.314 72.94C253.426 72.316 252.322 72.004 251.002 72.004C249.634 72.004 248.554 72.328 247.762 72.976C246.994 73.624 246.61 74.524 246.61 75.676C246.61 76.612 246.91 77.344 247.51 77.872C248.134 78.376 248.974 78.76 250.03 79.024L253.126 79.78C255.382 80.332 257.134 81.28 258.382 82.624C259.63 83.968 260.254 85.456 260.254 87.088C260.254 88.528 259.906 89.8 259.21 90.904C258.514 92.008 257.482 92.872 256.114 93.496C254.77 94.12 253.126 94.432 251.182 94.432Z" fill="#C7EF4E"/>
<path d="M54 53.9773L1.79391e-06 0L0 41.0227L54 95L54 53.9773Z" fill="#C7EF4E"/>
</svg>
